<svg viewBox="0 0 57 57" fill="none" xmlns="http://www.w3.org/2000/svg">
  <circle cx="28.5" cy="28.5" r="28.5" fill="#1CA497"/>
  <path d="M18.625 19.625a3.75 3.75 0 1 1 7.5 0 3.75 3.75 0 0 1-7.5 0Zm12.71 2.97.08.06a3.75 3.75 0 1 0-.08-.06Zm-6.582 2.655a3.75 3.75 0 1 1 6.63 3.502 3.75 3.75 0 0 1-6.63-3.502Zm-7.066 0h5.007a5.65 5.65 0 0 0 1.114 5.625h-.495a4.69 4.69 0 0 0-4.416 3.109 6.996 6.996 0 0 1-1.75-1.018c-1.41-1.135-2.272-2.811-2.272-4.904a2.812 2.812 0 0 1 2.813-2.812Zm15 5.625a4.688 4.688 0 0 1 4.414 3.109c.638-.26 1.228-.6 1.752-1.018 1.41-1.135 2.272-2.811 2.272-4.904a2.812 2.812 0 0 0-2.813-2.812h-5.006c.207.587.319 1.219.319 1.875a5.606 5.606 0 0 1-1.432 3.75h.495Zm2.601 3.615c.137.33.212.694.212 1.072 0 2.093-.86 3.77-2.273 4.904-1.389 1.115-3.253 1.659-5.227 1.659-1.974 0-3.838-.544-5.227-1.66-1.41-1.134-2.273-2.81-2.273-4.903a2.805 2.805 0 0 1 2.813-2.812h9.375a2.812 2.812 0 0 1 2.6 1.74Z" fill="#fff"/>
</svg>
